<svg xmlns="http://www.w3.org/2000/svg" width="143" height="183" viewBox="0 0 143 183" fill="none">
  <g opacity="0.3">
    <path d="M9.14443 132.802C11.5688 116.546 22.445 109.942 27.58 108.672C32.6309 107.249 39.1128 111.635 41.7225 114.006C47.3794 119.492 55.5281 121.88 58.8954 122.388C62.532 123.607 60.4106 120.356 58.8954 118.578C54.6527 114.92 52.9185 110.45 52.5818 108.672L60.9157 114.006C70.7649 120.356 80.614 134.326 81.6242 134.834C82.4324 135.241 86.17 143.979 87.9378 148.297L81.3717 151.091C81.3717 148.856 79.7722 146.265 78.8462 146.265L72.5327 151.853L62.1784 163.283C59.3499 165.315 47.3626 166.501 41.7225 166.839H6.11395L9.14443 133.564C8.13426 140.084 6.72002 149.059 9.14443 132.802Z" fill="#7A64A1"/>
    <path d="M28.8165 108.394C23.3775 108.896 11.7464 114.918 8.734 134.994C7.6462 143.86 5.62121 162.698 6.22368 167.115L11.2444 166.959M98.3525 155.571C103.172 154.969 102.871 152.978 102.118 152.058C101.716 150.853 98.4361 151.221 96.8463 151.556C93.0306 152.56 83.8763 153.815 79.7761 154.316C76.9646 154.316 78.9393 151.64 80.2782 150.301C81.4831 149.097 81.2823 147.457 81.0313 146.788C79.8263 144.981 77.5168 147.039 76.5127 148.294C71.8937 150.904 66.2204 158.081 63.9611 161.343C55.3256 166.562 43.4602 166.696 38.6069 166.111L11.2444 166.959M98.3525 155.571L82.0354 160.59M98.3525 155.571C99.1056 156.826 99.206 159.837 93.5829 161.845C91.993 162.514 88.3614 164.956 86.554 169.373C85.2988 171.799 79.023 176.65 63.9611 176.65C52.9994 177.654 30.2224 180.465 26.8084 183.677C22.4572 185.433 13.5539 186.989 12.7506 179.16L11.2444 166.959" stroke="#1A1A1A" stroke-width="2" stroke-linecap="round"/>
    <path d="M2.23629 58.1431C-2.07751 41.7467 5.7885 24.8457 12.1323 18.0349C17.0044 11.4524 27.3576 5.87474 31.9253 3.9087C47.7596 -2.54897 62.8833 3.23603 68.4659 6.93574C81.0521 17.2277 78.1085 27.0319 75.0635 30.6475C68.5674 37.307 52.2256 48.7256 44.8667 53.6025C42.0247 57.6386 36.7466 56.2932 34.4628 55.116C31.6207 54.7124 29.8952 56.125 29.3877 56.8818C25.3276 60.9178 29.3877 66.2992 31.9253 68.4854C36.3913 72.5215 39.5379 68.8218 40.5529 66.4674C44.613 66.6692 43.7671 70.7557 42.8367 72.7737C40.8066 84.4783 32.179 89.5906 28.1189 90.6837C11.6757 93.1053 5.35551 69.999 2.23629 58.1431Z" fill="#1A1A1A" stroke="#1A1A1A" stroke-width="2"/>
    <path d="M75.7157 56.3937C75.3159 43.677 71.3837 35.2833 69.4676 32.676C21.6821 16.7296 22.5651 64.5519 28.9798 90.4564V108.623C33.9783 108.219 40.8928 113.165 43.7253 115.688C48.9237 120.129 56.3882 122.416 59.4707 123.005C62.0699 122.803 61.0535 121.071 60.2203 120.23L56.2216 115.688C50.2234 109.834 51.723 99.9603 53.2225 95.755C53.6224 92.3235 57.5546 91.4657 59.4707 91.4657H68.9678C73.3665 90.8601 73.9663 86.5034 73.7164 84.4008C73.1165 80.5656 73.9663 75.4015 74.4661 73.2989C74.866 69.06 77.4652 67.4956 78.7148 67.2433C82.1138 66.8396 83.2968 64.8884 83.4634 63.9632C84.0632 61.1373 81.5473 60.599 80.2144 60.6831C76.4155 61.0868 75.6324 57.9917 75.7157 56.3937Z" stroke="#1A1A1A" stroke-width="2"/>
    <path d="M52.14 109.124C61.4596 113.484 81.6667 127.331 87.9379 147.845" stroke="#1A1A1A" stroke-width="2"/>
    <ellipse cx="67.482" cy="53.9663" rx="1.46114" ry="3.28756" fill="#1A1A1A"/>
    <path d="M63.0983 71.8653C63.1836 73.3008 64.3257 76.3333 68.2123 76.9793" stroke="#1A1A1A" stroke-width="2" stroke-linecap="round"/>
    <path d="M78.4402 153.164L114.711 130.725C116.74 129.45 119.435 127.824 121.305 129.705C123.588 132 134.917 143.729 140.836 149.339C142.181 150.614 142.763 152.501 140.328 153.929C137.894 155.357 110.399 171.523 96.9559 179.428C95.655 180.193 93.9123 180.448 92.1368 178.408L86.5567 170.503" stroke="black" stroke-width="2" stroke-linecap="round"/>
  </g>
</svg>