<svg xmlns="http://www.w3.org/2000/svg" width="28" height="28" viewBox="0 0 28 28" fill="none">
  <path fill-rule="evenodd" clip-rule="evenodd" d="M16.7237 4.60467C16.0002 1.78786 11.9996 1.78786 11.2761 4.60468C10.8842 6.13054 9.29677 7.03165 7.77914 6.60897C5.01164 5.83819 2.86946 9.11638 4.75669 11.2824L5.32024 11.9291C6.35437 13.116 6.35437 14.8839 5.32024 16.0708L4.7567 16.7175C2.86946 18.8835 5.01164 22.1617 7.77914 21.3909C9.29677 20.9683 10.8842 21.8694 11.2761 23.3952C11.9996 26.212 16.0002 26.212 16.7237 23.3952C17.1157 21.8694 18.7031 20.9683 20.2207 21.3909C22.9882 22.1617 25.1304 18.8835 23.2432 16.7175L22.6796 16.0708C21.6455 14.8839 21.6455 13.116 22.6796 11.9291L23.2432 11.2824C25.1304 9.11638 22.9882 5.83819 20.2207 6.60897C18.7031 7.03165 17.1157 6.13054 16.7237 4.60467ZM13.9999 18C16.2091 18 17.9999 16.2091 17.9999 14C17.9999 11.7908 16.2091 9.99995 13.9999 9.99995C11.7908 9.99995 9.99994 11.7908 9.99994 14C9.99994 16.2091 11.7908 18 13.9999 18Z" fill="#EA9310"/>
</svg>