<svg xmlns="http://www.w3.org/2000/svg" width="166" height="175" viewBox="0 0 166 175" fill="none">
  <g opacity="0.3">
    <path d="M34.2963 152.001C28.2815 152.861 22.8395 163.816 20.8704 169.187L146 173.483L132.037 132.131C129.03 121.39 111.093 112.977 102.5 110.112C91.7592 119.994 82.2716 122.464 78.8704 122.464C71.9963 123.324 62.7592 117.81 59 114.946L58.463 143.946C56.3148 152.538 51.1234 152.896 48.7963 152.001H34.2963Z" fill="#7A64A1"/>
    <path d="M43.4052 64.0154C43.0851 57.9347 47.8057 58.2814 50.206 59.2148C55.0066 54.0942 54.4732 46.5466 53.6064 43.4129C58.567 44.373 64.4744 35.4119 66.808 30.8113C72.2487 38.1722 82.1432 35.0785 86.4104 32.6116C85.6103 41.8927 93.2779 43.6796 97.2117 43.4129C94.4914 52.0539 100.612 56.7478 104.013 58.0147C108.013 57.0545 108.346 62.6819 108.013 65.6156C107.853 72.8165 102.479 75.1501 99.8121 75.4168C98.3719 79.7373 95.7449 83.4844 94.6114 84.8179C86.2904 94.7392 74.0756 93.8857 69.0083 92.2188C59.4071 90.2986 53.9398 81.0175 52.4062 76.6169C44.5653 74.5367 43.1385 67.3491 43.4052 64.0154Z" stroke="#1A1A1A" stroke-width="2" stroke-linecap="round"/>
    <path d="M32.4038 52.614C30.0035 64.9355 38.7379 67.3491 43.4052 67.0157C42.7384 63.5487 43.1652 57.0946 50.206 59.0148C52.2729 56.5478 55.8467 49.9737 53.6064 43.4129C56.0734 43.2795 62.2075 40.5325 67.0081 30.6113C69.4084 33.9451 76.6893 38.9723 86.6105 32.4115C86.2104 35.9453 87.8506 43.0928 97.6118 43.4129C97.0117 47.48 97.7318 56.0544 105.413 57.8146C107.08 58.348 110.053 60.935 108.613 67.0157C112.454 67.0157 112.88 62.0818 112.614 59.6149C121.735 52.574 117.348 44.1463 114.014 40.8126C116.894 23.5305 105.479 17.2097 99.412 16.2096C96.3717 1.16773 82.5433 2.87459 76.0092 5.60825C70.4085 -1.59263 60.7406 1.40774 56.6068 3.80803C50.366 6.8484 49.4726 15.7428 49.806 19.81C44.6854 18.2098 40.3382 22.3436 38.8046 24.6106C32.2438 32.9316 36.071 41.8127 38.8046 45.2131C35.1242 46.3332 33.0039 50.6137 32.4038 52.614Z" fill="#1A1A1A" stroke="#1A1A1A" stroke-width="2" stroke-linecap="round"/>
    <rect x="13.8148" y="93.3902" width="46.3333" height="59.2222" rx="9" fill="white" stroke="#1A1A1A" stroke-width="2"/>
    <path d="M60.0741 59.8799C60.0741 57.4828 63.8334 54.2606 66.5185 58.2366" stroke="#1A1A1A" stroke-width="2" stroke-linecap="round"/>
    <path d="M67.8084 77.5933C70.02 80.247 75.9364 84.0799 81.9088 78.1819" stroke="#1A1A1A" stroke-width="2" stroke-linecap="round"/>
    <path d="M89.6111 59.631C89.074 57.4828 85.7229 54.7311 82.6296 58.2366" stroke="#1A1A1A" stroke-width="2" stroke-linecap="round"/>
    <path d="M71.8888 68.2235C71.2856 66.8286 71.3519 63.9273 74.037 62.8532C76.066 62.0228 80.8006 63.3541 78.8703 68.2235" stroke="#1A1A1A" stroke-width="2" stroke-linecap="round"/>
    <path d="M140.957 76.642C143.383 78.4485 148.789 80.7594 151.008 75.5519C151.765 73.5011 150.26 71.5443 148.375 72.1274C146.469 72.8515 143.961 75.7938 149.177 81.7698C149.449 81.9548 150.681 83.7266 152.063 83.501" stroke="#EBB300" stroke-width="2" stroke-linecap="round" stroke-linejoin="round"/>
    <path d="M135.407 102.966C128.555 100.124 130.991 93.987 133.066 91.2737C136.866 84.1315 133.619 84.552 134.238 77.3866C135.702 67.6258 142.29 62.902 145.635 61.9369C158.454 58.2387 162.823 69.6551 163.034 76.3402C163.18 85.0721 156.188 89.7502 152.215 90.9691C148.443 91.8553 145.857 96.9718 145.035 99.4192C142.404 104.831 137.52 104.039 135.407 102.966Z" stroke="#1A1A1A" stroke-width="2" stroke-linecap="round" stroke-linejoin="round"/>
    <path d="M134.113 88.5694L138.277 91.1438M145.773 95.7778L141.609 93.2034M138.277 91.1438L140.431 76.7758M138.277 91.1438L141.609 93.2034M141.609 93.2034L153.115 83.2277" stroke="#1A1A1A" stroke-width="2" stroke-linecap="round" stroke-linejoin="round"/>
    <path d="M1 170.509C7.76475 163.177 22.2493 144.272 26.0694 127.314C27.6611 122.515 32.0781 111.676 37.0123 106.717C38.5377 105.65 41.2702 105.117 39.9968 111.516C37.8745 114.716 33.63 122.075 33.63 125.915C38.8693 122.182 49.6266 114.396 50.7408 113.116C51.7356 112.25 54.1232 111.036 55.7149 113.116C55.9139 114.049 55.7547 116.356 53.5263 118.116L52.5315 118.88C53.1765 119.587 53.9033 121.293 53.0284 123.515C53.9902 124.915 55.2374 128.474 52.5315 131.514C51.404 136.313 47.0401 146.312 38.604 147.912C33.232 151.378 22.0503 160.591 20.2994 169.71L1 170.509Z" fill="white"/>
    <path d="M43.3792 125.915L52.5315 118.88M52.5315 118.88L53.5263 118.116C55.7547 116.356 55.9139 114.049 55.7149 113.116C54.1232 111.036 51.7356 112.25 50.7408 113.116C49.6266 114.396 38.8693 122.182 33.63 125.915C33.63 122.075 37.8745 114.716 39.9968 111.516C41.2702 105.117 38.5377 105.65 37.0123 106.717C32.0781 111.676 27.6611 122.515 26.0694 127.314C22.2493 144.272 7.76475 163.177 1 170.509L20.2994 169.71C22.0503 160.591 33.232 151.378 38.6041 147.912C47.0401 146.312 51.404 136.313 52.5315 131.514C55.2374 128.474 53.9902 124.915 53.0284 123.515M52.5315 118.88C53.1765 119.587 53.9033 121.293 53.0284 123.515M52.5315 124.53C52.2698 124.977 51.942 125.439 51.5367 125.915L49.1491 129.114L52.5315 124.53ZM52.5315 124.53C52.7356 124.181 52.8994 123.842 53.0284 123.515" stroke="#1A1A1A" stroke-width="2" stroke-linecap="round" stroke-linejoin="round"/>
    <path d="M60.0741 101.769C61.3636 100.045 63.7952 95.4834 63.2057 91.028" stroke="#1A1A1A" stroke-width="2" stroke-linecap="round"/>
    <path d="M88.3695 91.028C87.7025 95.4787 89.9704 105.656 104.378 110.757C113.516 113.215 132.513 122.954 135.394 142.244L146 173.732L20.3333 169.945" stroke="#1A1A1A" stroke-width="2" stroke-linecap="round"/>
    <path d="M60.0741 115.209C63.2862 119.497 73.9977 126.246 91.1466 118.937C93.6377 117.632 99.2884 114.09 101.963 110.361" stroke="#1A1A1A" stroke-width="2" stroke-linecap="round"/>
  </g>
</svg>